<svg xmlns="http://www.w3.org/2000/svg" width="32" height="32" viewBox="0 0 32 32">
    <g fill="none" fill-rule="evenodd">
        <path d="M0 0h32v32H0z"/>
        <path fill="#7E8187" fill-rule="nonzero" d="M4 25.827h1v.84c0 .181.154.333.35.333h24.3c.196 0 .35-.152.35-.333V9.333A.342.342 0 0 0 29.65 9h-1.02V8h1.02c.746 0 1.35.597 1.35 1.333v17.334c0 .736-.604 1.333-1.35 1.333H5.35C4.604 28 4 27.403 4 26.667v-.84zm0 0h1v.84c0 .181.154.333.35.333h24.3c.196 0 .35-.152.35-.333V9.333A.342.342 0 0 0 29.65 9h-1.02V8h1.02c.746 0 1.35.597 1.35 1.333v17.334c0 .736-.604 1.333-1.35 1.333H5.35C4.604 28 4 27.403 4 26.667v-.84z"/>
        <path fill="#7E8187" fill-rule="nonzero" d="M2 7v18h26V7H2zm0-1h26a1 1 0 0 1 1 1v18a1 1 0 0 1-1 1H2a1 1 0 0 1-1-1V7a1 1 0 0 1 1-1z"/>
        <path fill="#7E8187" d="M14.736 16.016a6.96 6.96 0 0 1-.889-.33 3.446 3.446 0 0 1-.803-.5 2.402 2.402 0 0 1-.584-.726c-.151-.285-.227-.627-.227-1.024 0-.372.072-.71.214-1.012a2.5 2.5 0 0 1 .564-.777c.234-.217.5-.387.798-.513.298-.125.607-.2.927-.226V10h.622v.882c.311 0 .588.03.83.09a2.733 2.733 0 0 1 1.16.603c.151.134.287.27.408.409l-.726.622a1.647 1.647 0 0 0-.739-.668 2.082 2.082 0 0 0-.933-.2v3.46c.32.113.635.24.946.383.311.143.592.32.843.532.25.212.454.467.61.765.155.298.233.659.233 1.082 0 .363-.067.694-.201.992a2.31 2.31 0 0 1-.558.772 2.786 2.786 0 0 1-.836.518c-.32.13-.665.208-1.037.234v.881h-.622v-.855a3.673 3.673 0 0 1-1.628-.46c-.48-.273-.849-.595-1.108-.967l.778-.557c.138.181.294.341.467.48.172.138.345.255.518.35.173.095.344.166.512.214.169.047.322.07.46.07v-3.616zm.622 3.604c.164 0 .346-.026.544-.078a1.53 1.53 0 0 0 .551-.272c.169-.13.312-.3.428-.512.117-.212.175-.478.175-.798.009-.44-.149-.806-.473-1.095-.324-.29-.732-.512-1.225-.668v3.423zm-.622-7.87a1.764 1.764 0 0 0-.636.162 1.614 1.614 0 0 0-.817.869 1.677 1.677 0 0 0-.116.629c0 .224.04.419.123.583.082.164.194.31.337.434.143.126.31.236.5.331.19.095.392.182.609.26V11.75z"/>
    </g>
</svg>
