<svg xmlns="http://www.w3.org/2000/svg" width="51" height="40" viewBox="0 0 51 40">
    <path fill="#177FFF" fill-rule="evenodd" d="M50.359 31.028c0 2.243-.87 4.3-2.612 6.168-1.74 1.87-4.144 2.804-7.211 2.804a11.32 11.32 0 0 1-4.788-1.06 14.064 14.064 0 0 1-4.103-2.865c-1.202-1.205-2.155-2.638-2.86-4.3-.704-1.66-1.057-3.447-1.057-5.358 0-2.658.518-5.192 1.555-7.6 1.036-2.41 2.424-4.715 4.165-6.917 1.74-2.201 3.793-4.299 6.155-6.293A78.695 78.695 0 0 1 47.126 0l3.606 3.115c-3.233 2.243-5.969 4.715-8.207 7.415-2.238 2.7-3.357 5.71-3.357 9.034 0 1.994.58 3.697 1.74 5.109 1.161 1.412 2.446 2.554 3.855 3.427 1.41.872 2.694 1.537 3.855 1.993 1.16.457 1.74.769 1.74.935zm-27.729 0c0 2.243-.87 4.3-2.61 6.168C18.277 39.066 15.873 40 12.806 40c-1.74 0-3.378-.353-4.911-1.06a13.263 13.263 0 0 1-4.041-2.865c-1.16-1.205-2.093-2.638-2.798-4.3C.352 30.116 0 28.329 0 26.418c0-2.658.518-5.192 1.554-7.6C2.59 16.406 3.98 14.101 5.72 11.9 7.46 9.7 9.512 7.601 11.875 5.607A78.695 78.695 0 0 1 19.397 0l3.606 3.115c-3.315 2.243-6.072 4.715-8.268 7.415-2.197 2.7-3.295 5.71-3.295 9.034 0 1.994.58 3.697 1.74 5.109 1.16 1.412 2.446 2.554 3.855 3.427 1.41.872 2.694 1.537 3.855 1.993 1.16.457 1.74.769 1.74.935z"/>
</svg>
